<svg width="44" height="34" viewBox="0 0 44 34" fill="none" xmlns="http://www.w3.org/2000/svg">
<path d="M38.1705 0H5.33228C2.66348 0 0.5 2.16349 0.5 4.83228C0.5 7.50108 2.66348 9.66457 5.33228 9.66457H38.1705C40.8393 9.66457 43.0028 7.50108 43.0028 4.83228C43.0028 2.16349 40.8393 0 38.1705 0Z" fill="#3CA46E"/>
<path d="M38.1705 12.0758H5.33228C2.66348 12.0758 0.5 14.2393 0.5 16.9081C0.5 19.5769 2.66348 21.7404 5.33228 21.7404H38.1705C40.8393 21.7404 43.0028 19.5769 43.0028 16.9081C43.0028 14.2393 40.8393 12.0758 38.1705 12.0758Z" fill="#399CBF"/>
<path d="M23.2669 24.1469H5.33228C2.66348 24.1469 0.5 26.3103 0.5 28.9791C0.5 31.6479 2.66348 33.8114 5.33228 33.8114H23.2669C25.9357 33.8114 28.0992 31.6479 28.0992 28.9791C28.0992 26.3103 25.9357 24.1469 23.2669 24.1469Z" fill="#EDB234"/>
<path d="M38.175 24.1469H35.3958C32.727 24.1469 30.5635 26.3103 30.5635 28.9791C30.5635 31.6479 32.727 33.8114 35.3958 33.8114H38.175C40.8438 33.8114 43.0073 31.6479 43.0073 28.9791C43.0073 26.3103 40.8438 24.1469 38.175 24.1469Z" fill="#C82C5F"/>
</svg>
